<svg width="76" height="76" viewBox="0 0 76 76" fill="none" xmlns="http://www.w3.org/2000/svg">
<mask id="mask0_219_1148" style="mask-type:alpha" maskUnits="userSpaceOnUse" x="0" y="0" width="76" height="76">
<rect width="76" height="76" fill="#C3DBFF"/>
</mask>
<g mask="url(#mask0_219_1148)">
<path d="M15.8333 66.5003C14.0917 66.5003 12.6007 65.8802 11.3604 64.6399C10.1201 63.3996 9.5 61.9087 9.5 60.167V15.8337C9.5 14.092 10.1201 12.601 11.3604 11.3607C12.6007 10.1205 14.0917 9.50033 15.8333 9.50033H29.1333C29.8194 7.60033 30.9674 6.06977 32.5771 4.90866C34.1868 3.74755 35.9944 3.16699 38 3.16699C40.0056 3.16699 41.8132 3.74755 43.4229 4.90866C45.0326 6.06977 46.1806 7.60033 46.8667 9.50033H60.1667C61.9083 9.50033 63.3993 10.1205 64.6396 11.3607C65.8799 12.601 66.5 14.092 66.5 15.8337V60.167C66.5 61.9087 65.8799 63.3996 64.6396 64.6399C63.3993 65.8802 61.9083 66.5003 60.1667 66.5003H15.8333ZM15.8333 60.167H60.1667V15.8337H15.8333V60.167ZM22.1667 53.8337H44.3333V47.5003H22.1667V53.8337ZM22.1667 41.167H53.8333V34.8337H22.1667V41.167ZM22.1667 28.5003H53.8333V22.167H22.1667V28.5003ZM38 13.4587C38.6861 13.4587 39.2535 13.2344 39.7021 12.7857C40.1507 12.3371 40.375 11.7698 40.375 11.0837C40.375 10.3975 40.1507 9.83019 39.7021 9.38158C39.2535 8.93296 38.6861 8.70866 38 8.70866C37.3139 8.70866 36.7465 8.93296 36.2979 9.38158C35.8493 9.83019 35.625 10.3975 35.625 11.0837C35.625 11.7698 35.8493 12.3371 36.2979 12.7857C36.7465 13.2344 37.3139 13.4587 38 13.4587Z" fill="white"/>
</g>
</svg>
