<svg width="44" height="44" viewBox="0 0 44 44" fill="none" xmlns="http://www.w3.org/2000/svg">
<mask id="mask0_219_1222" style="mask-type:alpha" maskUnits="userSpaceOnUse" x="0" y="0" width="44" height="44">
<rect width="44" height="44" fill="#548DE1"/>
</mask>
<g mask="url(#mask0_219_1222)">
<path d="M33.0003 23.833V20.1663H40.3337V23.833H33.0003ZM35.2003 36.6663L29.3337 32.2663L31.5337 29.333L37.4003 33.733L35.2003 36.6663ZM31.5337 14.6663L29.3337 11.733L35.2003 7.33301L37.4003 10.2663L31.5337 14.6663ZM9.16699 34.833V27.4997H7.33366C6.32533 27.4997 5.46213 27.1406 4.74408 26.4226C4.02602 25.7045 3.66699 24.8413 3.66699 23.833V20.1663C3.66699 19.158 4.02602 18.2948 4.74408 17.5768C5.46213 16.8587 6.32533 16.4997 7.33366 16.4997H14.667L23.8337 10.9997V32.9997L14.667 27.4997H12.8337V34.833H9.16699ZM20.167 26.4913V17.508L15.6753 20.1663H7.33366V23.833H15.6753L20.167 26.4913ZM25.667 28.1413V15.858C26.492 16.5913 27.1566 17.4851 27.6607 18.5393C28.1649 19.5934 28.417 20.7469 28.417 21.9997C28.417 23.2525 28.1649 24.4059 27.6607 25.4601C27.1566 26.5143 26.492 27.408 25.667 28.1413Z" fill="url(#paint0_linear_219_1222)"/>
</g>
<defs>
<linearGradient id="paint0_linear_219_1222" x1="22.0003" y1="7.33301" x2="22.0003" y2="36.6663" gradientUnits="userSpaceOnUse">
<stop stop-color="#4484CF"/>
<stop offset="1" stop-color="#224369"/>
</linearGradient>
</defs>
</svg>
