<svg width="135" height="42" viewBox="0 0 135 42" fill="none" xmlns="http://www.w3.org/2000/svg">
<g filter="url(#filter0_ii_219_1166)">
<circle cx="21.4897" cy="20.9899" r="20.9899" fill="#D91F23"/>
</g>
<path d="M20.295 16.011H17.0706C17.0117 15.5939 16.8914 15.2233 16.7098 14.8994C16.5282 14.5706 16.2951 14.2908 16.0105 14.0602C15.7258 13.8295 15.397 13.6528 15.024 13.5301C14.6559 13.4074 14.2559 13.3461 13.824 13.3461C13.0437 13.3461 12.3639 13.5399 11.7848 13.9277C11.2057 14.3105 10.7566 14.87 10.4376 15.6062C10.1186 16.3374 9.95908 17.2257 9.95908 18.2711C9.95908 19.3459 10.1186 20.249 10.4376 20.9802C10.7615 21.7115 11.213 22.2636 11.7922 22.6366C12.3713 23.0096 13.0412 23.1961 13.8019 23.1961C14.2289 23.1961 14.624 23.1397 14.9872 23.0268C15.3553 22.9139 15.6816 22.7495 15.9663 22.5336C16.2509 22.3127 16.4865 22.0452 16.673 21.7311C16.8644 21.417 16.9969 21.0588 17.0706 20.6563L20.295 20.6711C20.2116 21.3631 20.003 22.0305 19.6693 22.6735C19.3404 23.3115 18.8963 23.8832 18.3368 24.3887C17.7822 24.8893 17.1196 25.2869 16.3491 25.5814C15.5835 25.8709 14.7172 26.0157 13.7504 26.0157C12.4056 26.0157 11.2032 25.7114 10.1431 25.1028C9.08793 24.4943 8.2536 23.6133 7.64012 22.46C7.03154 21.3066 6.72726 19.9103 6.72726 18.2711C6.72726 16.627 7.03645 15.2282 7.65484 14.0749C8.27323 12.9216 9.11247 12.0431 10.1726 11.4394C11.2327 10.8308 12.4253 10.5265 13.7504 10.5265C14.624 10.5265 15.4338 10.6492 16.1798 10.8946C16.9307 11.14 17.5957 11.4983 18.1748 11.9694C18.7539 12.4357 19.2251 13.0074 19.5883 13.6847C19.9564 14.362 20.1919 15.1375 20.295 16.011Z" fill="white"/>
<path d="M34.3227 25.0094C34.3227 26.6535 34.0111 28.0523 33.3878 29.2056C32.7694 30.359 31.9252 31.2399 30.8553 31.8485C29.7903 32.4521 28.5928 32.754 27.2628 32.754C25.9229 32.754 24.7205 32.4497 23.6555 31.8411C22.5905 31.2325 21.7488 30.3516 21.1304 29.1982C20.512 28.0449 20.2028 26.6486 20.2028 25.0094C20.2028 23.3653 20.512 21.9665 21.1304 20.8132C21.7488 19.6598 22.5905 18.7813 23.6555 18.1777C24.7205 17.5691 25.9229 17.2648 27.2628 17.2648C28.5928 17.2648 29.7903 17.5691 30.8553 18.1777C31.9252 18.7813 32.7694 19.6598 33.3878 20.8132C34.0111 21.9665 34.3227 23.3653 34.3227 25.0094ZM31.0909 25.0094C31.0909 23.9444 30.9314 23.0463 30.6124 22.315C30.2983 21.5837 29.8541 21.0291 29.2799 20.6512C28.7057 20.2733 28.0333 20.0844 27.2628 20.0844C26.4923 20.0844 25.8199 20.2733 25.2457 20.6512C24.6714 21.0291 24.2248 21.5837 23.9058 22.315C23.5917 23.0463 23.4347 23.9444 23.4347 25.0094C23.4347 26.0744 23.5917 26.9725 23.9058 27.7038C24.2248 28.4351 24.6714 28.9897 25.2457 29.3676C25.8199 29.7455 26.4923 29.9344 27.2628 29.9344C28.0333 29.9344 28.7057 29.7455 29.2799 29.3676C29.8541 28.9897 30.2983 28.4351 30.6124 27.7038C30.9314 26.9725 31.0909 26.0744 31.0909 25.0094Z" fill="white"/>
<path d="M63.8913 14.3563H66.4567V15.8178C66.4567 17.8857 65.3528 18.8808 63.1761 18.8808C61.4658 18.8808 59.9265 18.1811 59.9265 15.6468V10.6092C59.9265 8.07485 61.4658 7.37519 63.1761 7.37519C65.0574 7.37519 66.4567 7.93492 66.4567 10.3293V11.5421H63.8757V10.0184C63.8757 9.56746 63.7358 9.14767 63.1761 9.14767C62.6474 9.14767 62.5075 9.56746 62.5075 10.0184V16.2376C62.5075 16.6885 62.6474 17.1083 63.1761 17.1083C63.7358 17.1083 63.8757 16.6885 63.8757 16.2376L63.8913 14.3563ZM73.669 7.59286V15.5068C73.6068 17.8546 72.7983 18.8808 70.3883 18.8808C67.201 18.8808 67.1388 16.6574 67.1388 15.2581V7.59286H69.7197V15.569C69.7197 16.4553 69.7197 17.1083 70.3883 17.1083C71.088 17.1083 71.088 16.4553 71.088 15.569V7.59286H73.669ZM76.9009 18.6631H74.3199V7.59286H76.9164C79.373 7.59286 80.8346 7.84163 80.8346 10.1738C80.8346 11.5576 80.2593 12.4594 78.86 12.6926V12.7237C80.1038 12.7548 80.8346 13.2213 80.8346 14.8072V17.1238C80.8346 17.5592 80.9123 18.2122 81.2233 18.6631H78.6267C78.3158 18.2122 78.2536 17.5592 78.2536 17.1238V14.7761C78.2536 13.9987 77.7871 13.61 77.3207 13.61H76.9009V18.6631ZM76.9009 9.17876V12.0241C78.067 12.0241 78.2536 11.6354 78.2536 10.5936C78.2536 9.56746 78.0825 9.17876 76.9009 9.17876ZM84.1131 18.6631H81.5322V7.59286H84.1287C86.5853 7.59286 88.0468 7.84163 88.0468 10.1738C88.0468 11.5576 87.4715 12.4594 86.0722 12.6926V12.7237C87.316 12.7548 88.0468 13.2213 88.0468 14.8072V17.1238C88.0468 17.5592 88.1245 18.2122 88.4355 18.6631H85.839C85.528 18.2122 85.4658 17.5592 85.4658 17.1238V14.7761C85.4658 13.9987 84.9994 13.61 84.5329 13.61H84.1131V18.6631ZM84.1131 9.17876V12.0241C85.2792 12.0241 85.4658 11.6354 85.4658 10.5936C85.4658 9.56746 85.2948 9.17876 84.1131 9.17876ZM91.3098 18.6631H88.7288V7.59286H91.3098V18.6631ZM95.9136 14.3563H98.4791V15.8178C98.4791 17.8857 97.3752 18.8808 95.1984 18.8808C93.4881 18.8808 91.9489 18.1811 91.9489 15.6468V10.6092C91.9489 8.07485 93.4881 7.37519 95.1984 7.37519C97.0797 7.37519 98.4791 7.93492 98.4791 10.3293V11.5421H95.8981V10.0184C95.8981 9.56746 95.7582 9.14767 95.1984 9.14767C94.6698 9.14767 94.5299 9.56746 94.5299 10.0184V16.2376C94.5299 16.6885 94.6698 17.1083 95.1984 17.1083C95.7582 17.1083 95.8981 16.6885 95.8981 16.2376L95.9136 14.3563ZM105.691 7.59286V15.5068C105.629 17.8546 104.821 18.8808 102.411 18.8808C99.2233 18.8808 99.1611 16.6574 99.1611 15.2581V7.59286H101.742V15.569C101.742 16.4553 101.742 17.1083 102.411 17.1083C103.11 17.1083 103.11 16.4553 103.11 15.569V7.59286H105.691ZM111.722 18.6631H106.342V7.59286H108.923V16.9839H111.722V18.6631ZM114.833 14.263H115.766L115.315 9.33424H115.284L114.833 14.263ZM113.838 7.59286H117.383L118.814 18.6631H116.248L115.953 15.9422H114.553L114.134 18.6631H111.957L113.838 7.59286ZM121.89 18.6631H119.309V7.59286H121.906C124.362 7.59286 125.824 7.84163 125.824 10.1738C125.824 11.5576 125.248 12.4594 123.849 12.6926V12.7237C125.093 12.7548 125.824 13.2213 125.824 14.8072V17.1238C125.824 17.5592 125.901 18.2122 126.212 18.6631H123.616C123.305 18.2122 123.243 17.5592 123.243 17.1238V14.7761C123.243 13.9987 122.776 13.61 122.31 13.61H121.89V18.6631ZM121.89 9.17876V12.0241C123.056 12.0241 123.243 11.6354 123.243 10.5936C123.243 9.56746 123.072 9.17876 121.89 9.17876ZM62.6319 31.263H63.5648L63.1139 26.3342H63.0828L62.6319 31.263ZM61.6368 24.5929H65.1818L66.6122 35.6631H64.0468L63.7514 32.9422H62.352L61.9322 35.6631H59.7555L61.6368 24.5929ZM71.1035 31.3563H73.669V32.8178C73.669 34.8857 72.565 35.8808 70.3883 35.8808C68.678 35.8808 67.1388 35.1811 67.1388 32.6468V27.6092C67.1388 25.0748 68.678 24.3752 70.3883 24.3752C72.2696 24.3752 73.669 24.9349 73.669 27.3293V28.5421H71.088V27.0184C71.088 26.5675 70.948 26.1477 70.3883 26.1477C69.8597 26.1477 69.7197 26.5675 69.7197 27.0184V33.2376C69.7197 33.6885 69.8597 34.1083 70.3883 34.1083C70.948 34.1083 71.088 33.6885 71.088 33.2376L71.1035 31.3563ZM76.0302 26.2721H74.2266V24.5929H80.4148V26.2721H78.6112V35.6631H76.0302V26.2721ZM83.5054 35.6631H80.9244V24.5929H83.5054V35.6631ZM85.6371 35.6631L83.9268 24.5929H86.6944L87.3163 33.1288H87.3474L88.4668 24.5929H90.8768L89.0266 35.6631H85.6371ZM93.891 35.6631H91.3101V24.5929H93.891V35.6631ZM96.2093 26.2721H94.4057V24.5929H100.594V26.2721H98.7903V35.6631H96.2093V26.2721ZM103.685 35.6631H101.104V24.5929H103.685V35.6631ZM109.641 35.6631H104.292V24.5929H109.641V26.2721H106.873V28.6975H109.548V30.3767H106.873V33.9839H109.641V35.6631ZM116.608 28.5576H114.027V27.0028C114.027 26.4586 113.856 26.1477 113.343 26.1477C112.784 26.1477 112.659 26.4586 112.659 27.0028C112.659 28.8686 116.608 29.4128 116.608 32.8333C116.608 34.9168 115.489 35.8808 113.328 35.8808C111.68 35.8808 110.078 35.321 110.078 33.4086V31.3563H112.659V33.2687C112.659 33.9217 112.861 34.1083 113.343 34.1083C113.763 34.1083 114.027 33.9217 114.027 33.2687C114.027 30.7654 110.078 30.7188 110.078 27.1427C110.078 25.137 111.4 24.3752 113.39 24.3752C115.131 24.3752 116.608 24.966 116.608 26.8162V28.5576Z" fill="#363636"/>
<path d="M47.6599 20.9883H54.6565" stroke="#363636" stroke-width="2.07308"/>
<defs>
<filter id="filter0_ii_219_1166" x="-0.536782" y="-0.518269" width="45.0894" height="44.0526" filterUnits="userSpaceOnUse" color-interpolation-filters="sRGB">
<feFlood flood-opacity="0" result="BackgroundImageFix"/>
<feBlend mode="normal" in="SourceGraphic" in2="BackgroundImageFix" result="shape"/>
<feColorMatrix in="SourceAlpha" type="matrix" values="0 0 0 0 0 0 0 0 0 0 0 0 0 0 0 0 0 0 127 0" result="hardAlpha"/>
<feOffset dx="2.07308" dy="1.55481"/>
<feGaussianBlur stdDeviation="1.03654"/>
<feComposite in2="hardAlpha" operator="arithmetic" k2="-1" k3="1"/>
<feColorMatrix type="matrix" values="0 0 0 0 1 0 0 0 0 1 0 0 0 0 1 0 0 0 0.25 0"/>
<feBlend mode="normal" in2="shape" result="effect1_innerShadow_219_1166"/>
<feColorMatrix in="SourceAlpha" type="matrix" values="0 0 0 0 0 0 0 0 0 0 0 0 0 0 0 0 0 0 127 0" result="hardAlpha"/>
<feOffset dx="-1.03654" dy="-0.518269"/>
<feGaussianBlur stdDeviation="1.03654"/>
<feComposite in2="hardAlpha" operator="arithmetic" k2="-1" k3="1"/>
<feColorMatrix type="matrix" values="0 0 0 0 0 0 0 0 0 0 0 0 0 0 0 0 0 0 0.25 0"/>
<feBlend mode="normal" in2="effect1_innerShadow_219_1166" result="effect2_innerShadow_219_1166"/>
</filter>
</defs>
</svg>
