<svg width="24" height="24" viewBox="0 0 24 24" fill="none" xmlns="http://www.w3.org/2000/svg">
<mask id="mask0_219_1163" style="mask-type:alpha" maskUnits="userSpaceOnUse" x="0" y="0" width="24" height="24">
<rect width="24" height="24" fill="#D9D9D9"/>
</mask>
<g mask="url(#mask0_219_1163)">
<path d="M11.948 16.6058C12.234 16.6058 12.4753 16.5073 12.672 16.3105C12.8688 16.1137 12.9672 15.8723 12.9672 15.5865C12.9672 15.3007 12.8688 15.0593 12.672 14.8625C12.4753 14.6657 12.234 14.5673 11.948 14.5673C11.6622 14.5673 11.4208 14.6657 11.224 14.8625C11.0272 15.0593 10.9288 15.3007 10.9288 15.5865C10.9288 15.8723 11.0272 16.1137 11.224 16.3105C11.4208 16.5073 11.6622 16.6058 11.948 16.6058ZM11.2405 13.025H12.648C12.6545 12.7737 12.6718 12.5577 12.7 12.377C12.7282 12.1962 12.7839 12.0205 12.8673 11.85C12.9506 11.6795 13.0563 11.5151 13.1845 11.3567C13.3128 11.1984 13.484 11.0122 13.698 10.798C14.2302 10.266 14.6107 9.81375 14.8395 9.44125C15.0683 9.06892 15.1827 8.64558 15.1827 8.17125C15.1827 7.33908 14.8987 6.66825 14.3307 6.15875C13.7627 5.64908 13.0313 5.39425 12.1365 5.39425C11.3225 5.39425 10.6267 5.60158 10.049 6.01625C9.4715 6.43108 9.06092 6.97117 8.81725 7.6365L10.102 8.152C10.2443 7.72767 10.4808 7.38117 10.8115 7.1125C11.1423 6.84383 11.5571 6.7095 12.0558 6.7095C12.5956 6.7095 13.0171 6.856 13.3203 7.149C13.6234 7.442 13.775 7.79808 13.775 8.21725C13.775 8.52625 13.6833 8.8295 13.5 9.127C13.3167 9.42433 13.034 9.7455 12.652 10.0905C12.3878 10.3238 12.1683 10.5497 11.9933 10.7682C11.8183 10.9869 11.6724 11.2116 11.5558 11.4423C11.4391 11.6731 11.3573 11.9132 11.3105 12.1625C11.2638 12.4118 11.2405 12.6993 11.2405 13.025ZM12 22.2885L9.2115 19.5H5.30775C4.80258 19.5 4.375 19.325 4.025 18.975C3.675 18.625 3.5 18.1974 3.5 17.6923V4.30775C3.5 3.80258 3.675 3.375 4.025 3.025C4.375 2.675 4.80258 2.5 5.30775 2.5H18.6923C19.1974 2.5 19.625 2.675 19.975 3.025C20.325 3.375 20.5 3.80258 20.5 4.30775V17.6923C20.5 18.1974 20.325 18.625 19.975 18.975C19.625 19.325 19.1974 19.5 18.6923 19.5H14.7885L12 22.2885ZM5.30775 18H9.81925L12 20.1807L14.1807 18H18.6923C18.7821 18 18.8558 17.9712 18.9135 17.9135C18.9712 17.8558 19 17.7821 19 17.6923V4.30775C19 4.21792 18.9712 4.14417 18.9135 4.0865C18.8558 4.02883 18.7821 4 18.6923 4H5.30775C5.21792 4 5.14417 4.02883 5.0865 4.0865C5.02883 4.14417 5 4.21792 5 4.30775V17.6923C5 17.7821 5.02883 17.8558 5.0865 17.9135C5.14417 17.9712 5.21792 18 5.30775 18Z" fill="#1C1B1F"/>
</g>
</svg>
