<svg width="76" height="76" viewBox="0 0 76 76" fill="none" xmlns="http://www.w3.org/2000/svg">
<mask id="mask0_219_1136" style="mask-type:alpha" maskUnits="userSpaceOnUse" x="0" y="0" width="76" height="76">
<rect width="76" height="76" fill="#D9D9D9"/>
</mask>
<g mask="url(#mask0_219_1136)">
<path d="M27.2334 71.25L21.2167 61.1167L9.81675 58.5833L10.9251 46.8667L3.16675 38L10.9251 29.1333L9.81675 17.4167L21.2167 14.8833L27.2334 4.75L38.0001 9.34167L48.7667 4.75L54.7834 14.8833L66.1834 17.4167L65.0751 29.1333L72.8334 38L65.0751 46.8667L66.1834 58.5833L54.7834 61.1167L48.7667 71.25L38.0001 66.6583L27.2334 71.25ZM29.9251 63.175L38.0001 59.6917L46.2334 63.175L50.6667 55.575L59.3751 53.5167L58.5834 44.65L64.4417 38L58.5834 31.1917L59.3751 22.325L50.6667 20.425L46.0751 12.825L38.0001 16.3083L29.7667 12.825L25.3334 20.425L16.6251 22.325L17.4167 31.1917L11.5584 38L17.4167 44.65L16.6251 53.675L25.3334 55.575L29.9251 63.175ZM34.6751 49.2417L52.5667 31.35L48.1334 26.7583L34.6751 40.2167L27.8667 33.5667L23.4334 38L34.6751 49.2417Z" fill="white"/>
</g>
</svg>
