<svg width="44" height="44" viewBox="0 0 44 44" fill="none" xmlns="http://www.w3.org/2000/svg">
<mask id="mask0_219_1216" style="mask-type:alpha" maskUnits="userSpaceOnUse" x="0" y="0" width="44" height="44">
<rect width="44" height="44" fill="#548DE1"/>
</mask>
<g mask="url(#mask0_219_1216)">
<path d="M12.8335 31.1667C11.8252 31.1667 10.962 30.8076 10.2439 30.0896C9.52586 29.3715 9.16683 28.5083 9.16683 27.5V9.16667C9.16683 8.15833 9.52586 7.29514 10.2439 6.57708C10.962 5.85903 11.8252 5.5 12.8335 5.5H38.5002C39.5085 5.5 40.3717 5.85903 41.0897 6.57708C41.8078 7.29514 42.1668 8.15833 42.1668 9.16667V27.5C42.1668 28.5083 41.8078 29.3715 41.0897 30.0896C40.3717 30.8076 39.5085 31.1667 38.5002 31.1667H12.8335ZM25.6668 22.55L12.8335 13.6125V27.5H38.5002V13.6125L25.6668 22.55ZM25.6668 18.0583L38.5002 9.16667H12.8335L25.6668 18.0583ZM5.50016 38.5C4.49183 38.5 3.62864 38.141 2.91058 37.4229C2.19252 36.7049 1.8335 35.8417 1.8335 34.8333V11.9167H5.50016V34.8333H35.7502V38.5H5.50016Z" fill="url(#paint0_linear_219_1216)"/>
</g>
<defs>
<linearGradient id="paint0_linear_219_1216" x1="22.0002" y1="5.5" x2="22.0002" y2="38.5" gradientUnits="userSpaceOnUse">
<stop stop-color="#4484CF"/>
<stop offset="1" stop-color="#224369"/>
</linearGradient>
</defs>
</svg>
