<svg width="76" height="76" viewBox="0 0 76 76" fill="none" xmlns="http://www.w3.org/2000/svg">
<mask id="mask0_219_1142" style="mask-type:alpha" maskUnits="userSpaceOnUse" x="0" y="0" width="76" height="76">
<rect width="76" height="76" fill="#D9D9D9"/>
</mask>
<g mask="url(#mask0_219_1142)">
<path d="M47.5003 63.3337C40.4281 63.3337 34.4378 60.8795 29.5295 55.9712C24.6212 51.0628 22.167 45.0725 22.167 38.0003C22.167 30.9281 24.6212 24.9378 29.5295 20.0295C34.4378 15.1212 40.4281 12.667 47.5003 12.667C54.5725 12.667 60.5628 15.1212 65.4712 20.0295C70.3795 24.9378 72.8337 30.9281 72.8337 38.0003C72.8337 45.0725 70.3795 51.0628 65.4712 55.9712C60.5628 60.8795 54.5725 63.3337 47.5003 63.3337ZM22.167 62.542C16.5725 61.0642 12.0073 58.0559 8.47116 53.517C4.93505 48.9781 3.16699 43.8059 3.16699 38.0003C3.16699 32.1948 4.93505 27.0225 8.47116 22.4837C12.0073 17.9448 16.5725 14.9364 22.167 13.4587V20.1087C18.367 21.4281 15.3059 23.7239 12.9837 26.9962C10.6614 30.2684 9.50033 33.9364 9.50033 38.0003C9.50033 42.0642 10.6614 45.7323 12.9837 49.0045C15.3059 52.2767 18.367 54.5726 22.167 55.892V62.542ZM47.5003 57.0003C52.7781 57.0003 57.2642 55.1531 60.9587 51.4587C64.6531 47.7642 66.5003 43.2781 66.5003 38.0003C66.5003 32.7225 64.6531 28.2364 60.9587 24.542C57.2642 20.8475 52.7781 19.0003 47.5003 19.0003C42.2225 19.0003 37.7364 20.8475 34.042 24.542C30.3475 28.2364 28.5003 32.7225 28.5003 38.0003C28.5003 43.2781 30.3475 47.7642 34.042 51.4587C37.7364 55.1531 42.2225 57.0003 47.5003 57.0003Z" fill="white"/>
</g>
</svg>
